<svg width="20" height="20" viewBox="0 0 20 20" fill="none" xmlns="http://www.w3.org/2000/svg">
<path d="M17.0714 1H2.92857C2.41708 1 1.92654 1.20319 1.56487 1.56487C1.20319 1.92654 1 2.41708 1 2.92857L1 17.0714C1 17.5829 1.20319 18.0735 1.56487 18.4351C1.92654 18.7968 2.41708 19 2.92857 19H8.44308V12.8804H5.91183V10H8.44308V7.80464C8.44308 5.30754 9.92969 3.92821 12.2066 3.92821C13.2971 3.92821 14.4373 4.12268 14.4373 4.12268V6.57357H13.1809C11.943 6.57357 11.5569 7.34179 11.5569 8.12969V10H14.3204L13.8784 12.8804H11.5569V19H17.0714C17.5829 19 18.0735 18.7968 18.4351 18.4351C18.7968 18.0735 19 17.5829 19 17.0714V2.92857C19 2.41708 18.7968 1.92654 18.4351 1.56487C18.0735 1.20319 17.5829 1 17.0714 1Z" fill="#757575"/>
</svg>
