<svg width="20" height="20" viewBox="0 0 20 20" fill="none" xmlns="http://www.w3.org/2000/svg">
<path d="M10.9254 1.00111C11.5821 0.998587 12.2389 1.00519 12.8954 1.02091L13.07 1.02721C13.2716 1.03441 13.4705 1.04341 13.7108 1.05421C14.6684 1.0992 15.3217 1.2504 15.895 1.47269C16.489 1.70128 16.9894 2.01087 17.4898 2.51126C17.9473 2.96089 18.3014 3.50477 18.5274 4.1051C18.7497 4.67838 18.9009 5.33266 18.9459 6.29023C18.9567 6.52962 18.9657 6.72941 18.9729 6.93101L18.9783 7.1056C18.9943 7.76185 19.0012 8.41829 18.999 9.07473L18.9999 9.74611V10.9251C19.0021 11.5818 18.9952 12.2386 18.9792 12.8951L18.9738 13.0697C18.9666 13.2713 18.9576 13.4702 18.9468 13.7105C18.9018 14.668 18.7488 15.3214 18.5274 15.8947C18.3021 16.4957 17.9479 17.04 17.4898 17.4894C17.0397 17.9469 16.4956 18.301 15.895 18.5271C15.3217 18.7494 14.6684 18.9006 13.7108 18.9456C13.4705 18.9564 13.2716 18.9654 13.07 18.9726L12.8954 18.978C12.2389 18.994 11.5821 19.0009 10.9254 18.9987L10.254 18.9996H9.07594C8.4192 19.0018 7.76246 18.9949 7.10591 18.9789L6.93132 18.9735C6.71767 18.9658 6.50408 18.9568 6.29054 18.9465C5.33297 18.9015 4.67959 18.7485 4.10541 18.5271C3.50485 18.3015 2.96087 17.9474 2.51157 17.4894C2.05352 17.0397 1.6991 16.4955 1.473 15.8947C1.25071 15.3214 1.09952 14.668 1.05452 13.7105C1.04449 13.4969 1.03549 13.2833 1.02752 13.0697L1.02302 12.8951C1.00643 12.2386 0.998926 11.5818 1.00052 10.9251V9.07473C0.998007 8.41829 1.00461 7.76185 1.02032 7.1056L1.02662 6.93101C1.03382 6.72941 1.04282 6.52962 1.05362 6.29023C1.09862 5.33176 1.24981 4.67928 1.4721 4.1051C1.69833 3.50448 2.05345 2.96074 2.51247 2.51216C2.96146 2.05385 3.5051 1.6991 4.10541 1.47269C4.67959 1.2504 5.33207 1.0992 6.29054 1.05421L6.93132 1.02721L7.10591 1.02271C7.76215 1.00612 8.41859 0.998622 9.07504 1.00021L10.9254 1.00111ZM10.0002 5.50095C9.40399 5.49252 8.81203 5.60267 8.25875 5.825C7.70547 6.04734 7.20189 6.37742 6.77728 6.79606C6.35268 7.2147 6.01551 7.71356 5.78537 8.26365C5.55524 8.81373 5.43673 9.40407 5.43673 10.0004C5.43673 10.5966 5.55524 11.187 5.78537 11.7371C6.01551 12.2871 6.35268 12.786 6.77728 13.2046C7.20189 13.6233 7.70547 13.9534 8.25875 14.1757C8.81203 14.398 9.40399 14.5082 10.0002 14.4997C11.1936 14.4997 12.3382 14.0257 13.1821 13.1818C14.026 12.3379 14.5001 11.1933 14.5001 9.9999C14.5001 8.80647 14.026 7.66191 13.1821 6.81803C12.3382 5.97414 11.1936 5.50095 10.0002 5.50095ZM10.0002 7.30089C10.3589 7.29428 10.7152 7.35921 11.0485 7.49187C11.3818 7.62454 11.6853 7.82228 11.9412 8.07356C12.1972 8.32483 12.4006 8.6246 12.5394 8.95534C12.6783 9.28609 12.7498 9.64119 12.7499 9.99989C12.7499 10.3586 12.6785 10.7137 12.5398 11.0445C12.401 11.3753 12.1978 11.6751 11.9419 11.9265C11.686 12.1779 11.3826 12.3757 11.0493 12.5085C10.7161 12.6413 10.3598 12.7063 10.0011 12.6998C9.28505 12.6998 8.59832 12.4154 8.09199 11.909C7.58566 11.4027 7.3012 10.716 7.3012 9.9999C7.3012 9.28384 7.58566 8.59711 8.09199 8.09078C8.59832 7.58445 9.28505 7.29999 10.0011 7.29999L10.0002 7.30089ZM14.7251 4.151C14.4347 4.16262 14.1601 4.28613 13.9588 4.49566C13.7575 4.70519 13.6451 4.98449 13.6451 5.27506C13.6451 5.56563 13.7575 5.84493 13.9588 6.05446C14.1601 6.26399 14.4347 6.3875 14.7251 6.39912C15.0234 6.39912 15.3095 6.2806 15.5205 6.06963C15.7315 5.85866 15.85 5.57252 15.85 5.27416C15.85 4.9758 15.7315 4.68967 15.5205 4.47869C15.3095 4.26772 15.0234 4.1492 14.7251 4.1492V4.151Z" fill="#757575"/>
</svg>
